Normalized EMG Linear Envelopes
nRows=254
nColumns=4

endheader
time	 med_gas_r	  soleus_r	 tib_ant_r	
7.01915	  0.030586	  0.104415	  0.029736	
7.05242	  0.029918	  0.101139	  0.033198	
7.08569	  0.029175	  0.098248	  0.036025	
7.11895	  0.028327	  0.096120	  0.037786	
7.15222	  0.027483	  0.094692	  0.038302	
7.18548	  0.026820	  0.093547	  0.037682	
7.21875	  0.026472	  0.092215	  0.036240	
7.25202	  0.026462	  0.090501	  0.034372	
7.28528	  0.026724	  0.088606	  0.032488	
7.31855	  0.027183	  0.086975	  0.031009	
7.35181	  0.027805	  0.086002	  0.030332	
7.38508	  0.028576	  0.085825	  0.030682	
7.41835	  0.029441	  0.086395	  0.031918	
7.45161	  0.030258	  0.087716	  0.033507	
7.48488	  0.030827	  0.089954	  0.034773	
7.51815	  0.030961	  0.093207	  0.035295	
7.55141	  0.030577	  0.097143	  0.035130	
7.58468	  0.029748	  0.100920	  0.034670	
7.61794	  0.028679	  0.103615	  0.034256	
7.65121	  0.027625	  0.104838	  0.033925	
7.68448	  0.026792	  0.104980	  0.033502	
7.71774	  0.026287	  0.104861	  0.032902	
7.75101	  0.026124	  0.105080	  0.032332	
7.78427	  0.026270	  0.105647	  0.032166	
7.81754	  0.026673	  0.106154	  0.032650	
7.85081	  0.027267	  0.106225	  0.033708	
7.88407	  0.027955	  0.105787	  0.034997	
7.91734	  0.028626	  0.104973	  0.036141	
7.9506	  0.029188	  0.103894	  0.036930	
7.98387	  0.029597	  0.102623	  0.037353	
8.01714	  0.029853	  0.101385	  0.037491	
8.0504	  0.029974	  0.100632	  0.037373	
8.08367	  0.029990	  0.100769	  0.036949	
8.11694	  0.029955	  0.101798	  0.036155	
8.1502	  0.029935	  0.103289	  0.035024	
8.18347	  0.029967	  0.104754	  0.033728	
8.21673	  0.030012	  0.106023	  0.032556	
8.25	  0.029974	  0.107208	  0.031844	
8.28327	  0.029782	  0.108388	  0.031870	
8.31653	  0.029449	  0.109454	  0.032717	
8.3498	  0.029066	  0.110287	  0.034176	
8.38306	  0.028760	  0.110946	  0.035795	
8.41633	  0.028631	  0.111555	  0.037117	
8.4496	  0.028719	  0.112009	  0.037938	
8.48286	  0.028973	  0.111944	  0.038388	
8.51613	  0.029256	  0.111100	  0.038759	
8.5494	  0.029402	  0.109706	  0.039266	
8.58266	  0.029310	  0.108413	  0.039971	
8.61593	  0.028996	  0.107772	  0.040850	
8.64919	  0.028559	  0.107747	  0.041849	
8.68246	  0.028084	  0.107726	  0.042815	
8.71573	  0.027599	  0.106996	  0.043437	
8.74899	  0.027096	  0.105278	  0.043337	
8.78226	  0.026605	  0.102900	  0.042293	
8.81552	  0.026211	  0.100545	  0.040389	
8.84879	  0.026014	  0.098794	  0.037981	
8.88206	  0.026063	  0.097789	  0.035545	
8.91532	  0.026337	  0.097241	  0.033566	
8.94859	  0.026765	  0.096737	  0.032458	
8.98185	  0.027253	  0.096081	  0.032396	
9.01512	  0.027689	  0.095395	  0.033120	
9.04839	  0.027955	  0.094942	  0.033956	
9.08165	  0.027960	  0.094931	  0.034205	
9.11492	  0.027700	  0.095505	  0.033657	
9.14819	  0.027279	  0.096788	  0.032746	
9.18145	  0.026898	  0.098820	  0.032142	
9.21472	  0.026822	  0.101417	  0.032156	
9.24798	  0.027368	  0.104187	  0.032565	
9.28125	  0.028896	  0.106716	  0.032999	
9.31452	  0.031776	  0.108691	  0.033464	
9.34778	  0.036350	  0.109874	  0.034407	
9.38105	  0.042935	  0.110071	  0.036243	
9.41431	  0.051871	  0.109248	  0.038835	
9.44758	  0.063462	  0.107637	  0.041485	
9.48085	  0.077604	  0.105651	  0.043423	
9.51411	  0.093141	  0.103699	  0.044292	
9.54738	  0.107502	  0.102136	  0.044159	
9.58065	  0.117278	  0.101354	  0.043157	
9.61391	  0.119761	  0.101804	  0.041231	
9.64718	  0.114511	  0.103828	  0.038261	
9.68044	  0.103721	  0.107488	  0.034346	
9.71371	  0.091095	  0.112641	  0.029866	
9.74698	  0.080190	  0.119189	  0.025237	
9.78024	  0.073440	  0.127235	  0.020688	
9.81351	  0.072218	  0.136960	  0.016354	
9.84677	  0.077275	  0.148393	  0.012616	
9.88004	  0.088856	  0.161273	  0.010333	
9.91331	  0.106473	  0.175071	  0.010721	
9.94657	  0.128849	  0.189041	  0.014958	
9.97984	  0.154327	  0.202233	  0.023851	
10.0131	  0.181365	  0.213556	  0.037851	
10.0464	  0.208589	  0.222017	  0.057375	
10.0796	  0.234456	  0.227104	  0.082989	
10.1129	  0.257078	  0.229023	  0.115033	
10.1462	  0.274618	  0.228486	  0.152759	
10.1794	  0.285905	  0.226150	  0.193786	
10.2127	  0.290665	  0.222198	  0.234566	
10.246	  0.289182	  0.216497	  0.271772	
10.2792	  0.281871	  0.209169	  0.303542	
10.3125	  0.269240	  0.201009	  0.329627	
10.3458	  0.252307	  0.193372	  0.350475	
10.379	  0.232971	  0.187645	  0.366229	
10.4123	  0.213807	  0.184672	  0.376605	
10.4456	  0.197235	  0.184451	  0.381643	
10.4788	  0.184611	  0.186240	  0.382434	
10.5121	  0.175884	  0.189003	  0.380982	
10.5454	  0.169988	  0.191918	  0.379229	
10.5786	  0.165550	  0.194639	  0.378038	
10.6119	  0.161481	  0.197282	  0.376933	
10.6452	  0.157217	  0.200234	  0.374759	
10.6784	  0.152726	  0.203953	  0.370832	
10.7117	  0.148388	  0.208757	  0.365811	
10.745	  0.144804	  0.214651	  0.361725	
10.7782	  0.142551	  0.221319	  0.361077	
10.8115	  0.141939	  0.228371	  0.365642	
10.8448	  0.142850	  0.235655	  0.375767	
10.878	  0.144763	  0.243247	  0.390480	
10.9113	  0.146943	  0.250980	  0.408006	
10.9446	  0.148729	  0.257939	  0.426174	
10.9778	  0.149721	  0.262516	  0.442686	
11.0111	  0.149800	  0.263183	  0.455543	
11.0444	  0.149019	  0.259402	  0.463642	
11.0776	  0.147504	  0.252003	  0.467128	
11.1109	  0.145424	  0.242822	  0.467082	
11.1442	  0.143026	  0.233960	  0.464719	
11.1774	  0.140641	  0.227069	  0.460796	
11.2107	  0.138595	  0.222925	  0.455776	
11.244	  0.137037	  0.221371	  0.450540	
11.2772	  0.135798	  0.221671	  0.446795	
11.3105	  0.134464	  0.223041	  0.446529	
11.3437	  0.132681	  0.224954	  0.450794	
11.377	  0.130510	  0.226938	  0.458876	
11.4103	  0.128509	  0.228192	  0.468640	
11.4435	  0.127449	  0.227595	  0.477822	
11.4768	  0.127870	  0.224310	  0.485209	
11.5101	  0.129826	  0.218415	  0.490927	
11.5433	  0.132954	  0.210903	  0.495890	
11.5766	  0.136697	  0.203075	  0.501119	
11.6099	  0.140435	  0.195918	  0.507496	
11.6431	  0.143511	  0.189995	  0.515930	
11.6764	  0.145344	  0.185746	  0.527473	
11.7097	  0.145722	  0.183676	  0.542875	
11.7429	  0.145003	  0.184121	  0.561633	
11.7762	  0.143938	  0.186786	  0.581266	
11.8095	  0.143131	  0.190603	  0.597753	
11.8427	  0.142645	  0.194201	  0.607294	
11.876	  0.142153	  0.196680	  0.608336	
11.9093	  0.141492	  0.198041	  0.602375	
11.9425	  0.141062	  0.198875	  0.592873	
11.9758	  0.141640	  0.199637	  0.583148	
12.0091	  0.143821	  0.200239	  0.574895	
12.0423	  0.147628	  0.200326	  0.568282	
12.0756	  0.152644	  0.199905	  0.563134	
12.1089	  0.158412	  0.199638	  0.559924	
12.1421	  0.164664	  0.200474	  0.559732	
12.1754	  0.171171	  0.202932	  0.563387	
12.2087	  0.177482	  0.206707	  0.570531	
12.2419	  0.182893	  0.210917	  0.579401	
12.2752	  0.186733	  0.214760	  0.587597	
12.3085	  0.188697	  0.217983	  0.593494	
12.3417	  0.188982	  0.220792	  0.597169	
12.375	  0.188164	  0.223429	  0.599898	
12.4083	  0.186908	  0.225855	  0.602447	
12.4415	  0.185637	  0.227762	  0.603748	
12.4748	  0.184287	  0.228742	  0.601363	
12.5081	  0.182375	  0.228400	  0.593442	
12.5413	  0.179481	  0.226427	  0.580380	
12.5746	  0.175820	  0.222753	  0.564705	
12.6079	  0.172303	  0.217748	  0.549462	
12.6411	  0.169906	  0.212263	  0.536733	
12.6744	  0.168898	  0.207394	  0.527509	
12.7077	  0.168721	  0.204086	  0.522571	
12.7409	  0.168627	  0.202814	  0.523029	
12.7742	  0.168410	  0.203458	  0.529783	
12.8075	  0.168521	  0.205407	  0.542569	
12.8407	  0.169591	  0.207853	  0.559751	
12.874	  0.171941	  0.210160	  0.578992	
12.9073	  0.175436	  0.212102	  0.597856	
12.9405	  0.179562	  0.213869	  0.613668	
12.9738	  0.183491	  0.215865	  0.623233	
13.0071	  0.186213	  0.218488	  0.623478	
13.0403	  0.186912	  0.221970	  0.613041	
13.0736	  0.185438	  0.226276	  0.593521	
13.1069	  0.182485	  0.231065	  0.569090	
13.1401	  0.179226	  0.235702	  0.544613	
13.1734	  0.176676	  0.239344	  0.523669	
13.2067	  0.175227	  0.241136	  0.507838	
13.2399	  0.174642	  0.240490	  0.497356	
13.2732	  0.174394	  0.237352	  0.492122	
13.3065	  0.174048	  0.232245	  0.492063	
13.3397	  0.173397	  0.226062	  0.496725	
13.373	  0.172338	  0.219739	  0.504799	
13.4062	  0.170701	  0.214044	  0.514205	
13.4395	  0.168301	  0.209554	  0.522708	
13.4728	  0.165180	  0.206688	  0.528531	
13.506	  0.161756	  0.205681	  0.530576	
13.5393	  0.158691	  0.206486	  0.528294	
13.5726	  0.156555	  0.208722	  0.521533	
13.6058	  0.155542	  0.211725	  0.510572	
13.6391	  0.155345	  0.214667	  0.496209	
13.6724	  0.155187	  0.216669	  0.479590	
13.7056	  0.154005	  0.216917	  0.461737	
13.7389	  0.150789	  0.214806	  0.443197	
13.7722	  0.145013	  0.210060	  0.424216	
13.8054	  0.136920	  0.202749	  0.405354	
13.8387	  0.127480	  0.193204	  0.387887	
13.872	  0.118029	  0.181969	  0.373537	
13.9052	  0.109770	  0.169868	  0.363731	
13.9385	  0.103343	  0.158007	  0.358966	
13.9718	  0.098686	  0.147509	  0.358742	
14.005	  0.095242	  0.139066	  0.361916	
14.0383	  0.092417	  0.132664	  0.367052	
14.0716	  0.089979	  0.127738	  0.372450	
14.1048	  0.088143	  0.123616	  0.376032	
14.1381	  0.087287	  0.119877	  0.375522	
14.1714	  0.087518	  0.116359	  0.369162	
14.2046	  0.088403	  0.112924	  0.356608	
14.2379	  0.089052	  0.109276	  0.339355	
14.2712	  0.088534	  0.105023	  0.320269	
14.3044	  0.086327	  0.099917	  0.302458	
14.3377	  0.082542	  0.094057	  0.288105	
14.371	  0.077771	  0.087916	  0.277830	
14.4042	  0.072734	  0.082197	  0.270756	
14.4375	  0.067992	  0.077582	  0.265181	
14.4708	  0.063891	  0.074483	  0.259519	
14.504	  0.060673	  0.072892	  0.252964	
14.5373	  0.058576	  0.072384	  0.245462	
14.5706	  0.057822	  0.072318	  0.237175	
14.6038	  0.058552	  0.072118	  0.228063	
14.6371	  0.060821	  0.071498	  0.218009	
14.6704	  0.064649	  0.070503	  0.207245	
14.7036	  0.069937	  0.069372	  0.196460	
14.7369	  0.076187	  0.068332	  0.186341	
14.7702	  0.082269	  0.067466	  0.176922	
14.8034	  0.086611	  0.066728	  0.167395	
14.8367	  0.087884	  0.066066	  0.156623	
14.87	  0.085684	  0.065501	  0.143981	
14.9032	  0.080670	  0.065090	  0.129822	
14.9365	  0.074081	  0.064809	  0.115249	
14.9698	  0.067097	  0.064505	  0.101404	
15.003	  0.060504	  0.063961	  0.088864	
15.0363	  0.054706	  0.062992	  0.077512	
15.0696	  0.049859	  0.061462	  0.066885	
15.1028	  0.045971	  0.059255	  0.056669	
15.1361	  0.042946	  0.056311	  0.046988	
15.1694	  0.040652	  0.052736	  0.038343	
15.2026	  0.038983	  0.048853	  0.031289	
15.2359	  0.037917	  0.045106	  0.026120	
15.2692	  0.037523	  0.041841	  0.022809	
15.3024	  0.037909	  0.039152	  0.021148	
15.3357	  0.039143	  0.036896	  0.020929	
15.369	  0.041173	  0.034850	  0.021963	
15.4022	  0.043800	  0.032886	  0.023975	
15.4355	  0.046715	  0.031022	  0.026533	
